<mxfile host="Electron" modified="2023-10-16T21:25:30.800Z" agent="Mozilla/5.0 (Macintosh; Intel Mac OS X 10_15_7) AppleWebKit/537.36 (KHTML, like Gecko) draw.io/22.0.2 Chrome/114.0.5735.289 Electron/25.8.4 Safari/537.36" etag="z6Ln0LJZZ2VSEtfy7Y2V" version="22.0.2" type="device">
  <diagram id="C5RBs43oDa-KdzZeNtuy" name="Page-1">
    <mxGraphModel dx="1434" dy="854" grid="1" gridSize="10" guides="1" tooltips="1" connect="1" arrows="1" fold="1" page="1" pageScale="1" pageWidth="720" pageHeight="509" math="0" shadow="0">
      <root>
        <mxCell id="WIyWlLk6GJQsqaUBKTNV-0" />
        <mxCell id="WIyWlLk6GJQsqaUBKTNV-1" parent="WIyWlLk6GJQsqaUBKTNV-0" />
        <mxCell id="oAeWeOyywlavheIQp_EQ-0" value="BankAccount" style="swimlane;fontStyle=1;align=center;verticalAlign=top;childLayout=stackLayout;horizontal=1;startSize=30;horizontalStack=0;resizeParent=1;resizeParentMax=0;resizeLast=0;collapsible=0;marginBottom=0;whiteSpace=wrap;html=1;" parent="WIyWlLk6GJQsqaUBKTNV-1" vertex="1">
          <mxGeometry x="400" y="40" width="280" height="432" as="geometry" />
        </mxCell>
        <mxCell id="oAeWeOyywlavheIQp_EQ-1" value="- balance: double" style="text;strokeColor=none;fillColor=none;align=left;verticalAlign=middle;spacingLeft=4;spacingRight=4;overflow=hidden;rotatable=0;points=[[0,0.5],[1,0.5]];portConstraint=eastwest;whiteSpace=wrap;html=1;fontSize=11;" parent="oAeWeOyywlavheIQp_EQ-0" vertex="1">
          <mxGeometry y="30" width="280" height="20" as="geometry" />
        </mxCell>
        <mxCell id="oAeWeOyywlavheIQp_EQ-7" value="-&amp;nbsp;annualInterestRate&lt;span style=&quot;background-color: initial;&quot;&gt;: double&lt;/span&gt;" style="text;strokeColor=none;fillColor=none;align=left;verticalAlign=middle;spacingLeft=4;spacingRight=4;overflow=hidden;rotatable=0;points=[[0,0.5],[1,0.5]];portConstraint=eastwest;whiteSpace=wrap;html=1;fontSize=11;" parent="oAeWeOyywlavheIQp_EQ-0" vertex="1">
          <mxGeometry y="50" width="280" height="20" as="geometry" />
        </mxCell>
        <mxCell id="oAeWeOyywlavheIQp_EQ-6" value="-&amp;nbsp;monthlyServiceCharges&lt;span style=&quot;background-color: initial;&quot;&gt;: double&lt;/span&gt;" style="text;strokeColor=none;fillColor=none;align=left;verticalAlign=middle;spacingLeft=4;spacingRight=4;overflow=hidden;rotatable=0;points=[[0,0.5],[1,0.5]];portConstraint=eastwest;whiteSpace=wrap;html=1;fontSize=11;" parent="oAeWeOyywlavheIQp_EQ-0" vertex="1">
          <mxGeometry y="70" width="280" height="20" as="geometry" />
        </mxCell>
        <mxCell id="oAeWeOyywlavheIQp_EQ-5" value="-&amp;nbsp;monthlyDepositCount&lt;span style=&quot;background-color: initial;&quot;&gt;: int&lt;/span&gt;" style="text;strokeColor=none;fillColor=none;align=left;verticalAlign=middle;spacingLeft=4;spacingRight=4;overflow=hidden;rotatable=0;points=[[0,0.5],[1,0.5]];portConstraint=eastwest;whiteSpace=wrap;html=1;fontSize=11;" parent="oAeWeOyywlavheIQp_EQ-0" vertex="1">
          <mxGeometry y="90" width="280" height="20" as="geometry" />
        </mxCell>
        <mxCell id="oAeWeOyywlavheIQp_EQ-4" value="-&amp;nbsp;monthlyWithdrawalCount&lt;span style=&quot;background-color: initial;&quot;&gt;: int&lt;/span&gt;" style="text;strokeColor=none;fillColor=none;align=left;verticalAlign=middle;spacingLeft=4;spacingRight=4;overflow=hidden;rotatable=0;points=[[0,0.5],[1,0.5]];portConstraint=eastwest;whiteSpace=wrap;html=1;fontSize=11;" parent="oAeWeOyywlavheIQp_EQ-0" vertex="1">
          <mxGeometry y="110" width="280" height="20" as="geometry" />
        </mxCell>
        <mxCell id="oAeWeOyywlavheIQp_EQ-2" value="" style="line;strokeWidth=1;fillColor=none;align=left;verticalAlign=middle;spacingTop=-1;spacingLeft=3;spacingRight=3;rotatable=0;labelPosition=right;points=[];portConstraint=eastwest;strokeColor=inherit;" parent="oAeWeOyywlavheIQp_EQ-0" vertex="1">
          <mxGeometry y="130" width="280" height="8" as="geometry" />
        </mxCell>
        <mxCell id="oAeWeOyywlavheIQp_EQ-9" value="+&amp;nbsp;BankAccount(balance: double&lt;span style=&quot;background-color: initial;&quot;&gt;)&lt;/span&gt;" style="text;strokeColor=none;fillColor=none;align=left;verticalAlign=middle;spacingLeft=4;spacingRight=4;overflow=hidden;rotatable=0;points=[[0,0.5],[1,0.5]];portConstraint=eastwest;whiteSpace=wrap;html=1;fontSize=11;" parent="oAeWeOyywlavheIQp_EQ-0" vertex="1">
          <mxGeometry y="138" width="280" height="18" as="geometry" />
        </mxCell>
        <mxCell id="oAeWeOyywlavheIQp_EQ-8" value="+&amp;nbsp;BankAccount(balance: double,&amp;nbsp;annualInterestRate:&amp;nbsp;double&lt;span style=&quot;background-color: initial;&quot;&gt;)&lt;/span&gt;" style="text;strokeColor=none;fillColor=none;align=left;verticalAlign=middle;spacingLeft=4;spacingRight=4;overflow=hidden;rotatable=0;points=[[0,0.5],[1,0.5]];portConstraint=eastwest;whiteSpace=wrap;html=1;fontSize=11;" parent="oAeWeOyywlavheIQp_EQ-0" vertex="1">
          <mxGeometry y="156" width="280" height="34" as="geometry" />
        </mxCell>
        <mxCell id="oAeWeOyywlavheIQp_EQ-3" value="+&amp;nbsp;BankAccount(balance: double,&amp;nbsp;annualInterestRate:&amp;nbsp;double,&amp;nbsp;monthlyServiceCharges&lt;span style=&quot;background-color: initial;&quot;&gt;: double)&lt;/span&gt;" style="text;strokeColor=none;fillColor=none;align=left;verticalAlign=middle;spacingLeft=4;spacingRight=4;overflow=hidden;rotatable=0;points=[[0,0.5],[1,0.5]];portConstraint=eastwest;whiteSpace=wrap;html=1;fontSize=11;" parent="oAeWeOyywlavheIQp_EQ-0" vertex="1">
          <mxGeometry y="190" width="280" height="44" as="geometry" />
        </mxCell>
        <mxCell id="oAeWeOyywlavheIQp_EQ-10" value="+&amp;nbsp;getBalance(&lt;span style=&quot;background-color: initial;&quot;&gt;): double&lt;/span&gt;" style="text;strokeColor=none;fillColor=none;align=left;verticalAlign=middle;spacingLeft=4;spacingRight=4;overflow=hidden;rotatable=0;points=[[0,0.5],[1,0.5]];portConstraint=eastwest;whiteSpace=wrap;html=1;fontSize=11;" parent="oAeWeOyywlavheIQp_EQ-0" vertex="1">
          <mxGeometry y="234" width="280" height="18" as="geometry" />
        </mxCell>
        <mxCell id="oAeWeOyywlavheIQp_EQ-12" value="+&amp;nbsp;deposit(&lt;span style=&quot;background-color: initial;&quot;&gt;): void&lt;/span&gt;" style="text;strokeColor=none;fillColor=none;align=left;verticalAlign=middle;spacingLeft=4;spacingRight=4;overflow=hidden;rotatable=0;points=[[0,0.5],[1,0.5]];portConstraint=eastwest;whiteSpace=wrap;html=1;fontSize=11;" parent="oAeWeOyywlavheIQp_EQ-0" vertex="1">
          <mxGeometry y="252" width="280" height="18" as="geometry" />
        </mxCell>
        <mxCell id="oAeWeOyywlavheIQp_EQ-11" value="+&amp;nbsp;withdraw(&lt;span style=&quot;background-color: initial;&quot;&gt;): void&lt;/span&gt;" style="text;strokeColor=none;fillColor=none;align=left;verticalAlign=middle;spacingLeft=4;spacingRight=4;overflow=hidden;rotatable=0;points=[[0,0.5],[1,0.5]];portConstraint=eastwest;whiteSpace=wrap;html=1;fontSize=11;" parent="oAeWeOyywlavheIQp_EQ-0" vertex="1">
          <mxGeometry y="270" width="280" height="18" as="geometry" />
        </mxCell>
        <mxCell id="oAeWeOyywlavheIQp_EQ-14" value="+&amp;nbsp;getAnnualInterestRate(&lt;span style=&quot;background-color: initial;&quot;&gt;): double&lt;/span&gt;" style="text;strokeColor=none;fillColor=none;align=left;verticalAlign=middle;spacingLeft=4;spacingRight=4;overflow=hidden;rotatable=0;points=[[0,0.5],[1,0.5]];portConstraint=eastwest;whiteSpace=wrap;html=1;fontSize=11;" parent="oAeWeOyywlavheIQp_EQ-0" vertex="1">
          <mxGeometry y="288" width="280" height="18" as="geometry" />
        </mxCell>
        <mxCell id="oAeWeOyywlavheIQp_EQ-13" value="+&amp;nbsp;setAnnualInterestRate(rate: double&lt;span style=&quot;background-color: initial;&quot;&gt;): void&lt;/span&gt;" style="text;strokeColor=none;fillColor=none;align=left;verticalAlign=middle;spacingLeft=4;spacingRight=4;overflow=hidden;rotatable=0;points=[[0,0.5],[1,0.5]];portConstraint=eastwest;whiteSpace=wrap;html=1;fontSize=11;" parent="oAeWeOyywlavheIQp_EQ-0" vertex="1">
          <mxGeometry y="306" width="280" height="18" as="geometry" />
        </mxCell>
        <mxCell id="oAeWeOyywlavheIQp_EQ-15" value="+&amp;nbsp;getMonthlyServiceCharges(&lt;span style=&quot;background-color: initial;&quot;&gt;): double&lt;/span&gt;" style="text;strokeColor=none;fillColor=none;align=left;verticalAlign=middle;spacingLeft=4;spacingRight=4;overflow=hidden;rotatable=0;points=[[0,0.5],[1,0.5]];portConstraint=eastwest;whiteSpace=wrap;html=1;fontSize=11;" parent="oAeWeOyywlavheIQp_EQ-0" vertex="1">
          <mxGeometry y="324" width="280" height="18" as="geometry" />
        </mxCell>
        <mxCell id="oAeWeOyywlavheIQp_EQ-16" value="+&amp;nbsp;setMonthlyServiceCharges(charges: double&lt;span style=&quot;background-color: initial;&quot;&gt;): void&lt;/span&gt;" style="text;strokeColor=none;fillColor=none;align=left;verticalAlign=middle;spacingLeft=4;spacingRight=4;overflow=hidden;rotatable=0;points=[[0,0.5],[1,0.5]];portConstraint=eastwest;whiteSpace=wrap;html=1;fontSize=11;" parent="oAeWeOyywlavheIQp_EQ-0" vertex="1">
          <mxGeometry y="342" width="280" height="18" as="geometry" />
        </mxCell>
        <mxCell id="oAeWeOyywlavheIQp_EQ-17" value="+&amp;nbsp;getMonthlyDepositCount(&lt;span style=&quot;background-color: initial;&quot;&gt;): int&lt;/span&gt;" style="text;strokeColor=none;fillColor=none;align=left;verticalAlign=middle;spacingLeft=4;spacingRight=4;overflow=hidden;rotatable=0;points=[[0,0.5],[1,0.5]];portConstraint=eastwest;whiteSpace=wrap;html=1;fontSize=11;" parent="oAeWeOyywlavheIQp_EQ-0" vertex="1">
          <mxGeometry y="360" width="280" height="18" as="geometry" />
        </mxCell>
        <mxCell id="oAeWeOyywlavheIQp_EQ-18" value="+&amp;nbsp;getMonthlyWithdrawalCount(&lt;span style=&quot;background-color: initial;&quot;&gt;): int&lt;/span&gt;" style="text;strokeColor=none;fillColor=none;align=left;verticalAlign=middle;spacingLeft=4;spacingRight=4;overflow=hidden;rotatable=0;points=[[0,0.5],[1,0.5]];portConstraint=eastwest;whiteSpace=wrap;html=1;fontSize=11;" parent="oAeWeOyywlavheIQp_EQ-0" vertex="1">
          <mxGeometry y="378" width="280" height="18" as="geometry" />
        </mxCell>
        <mxCell id="oAeWeOyywlavheIQp_EQ-19" value="+&amp;nbsp;calcInterest(&lt;span style=&quot;background-color: initial;&quot;&gt;): void&lt;/span&gt;" style="text;strokeColor=none;fillColor=none;align=left;verticalAlign=middle;spacingLeft=4;spacingRight=4;overflow=hidden;rotatable=0;points=[[0,0.5],[1,0.5]];portConstraint=eastwest;whiteSpace=wrap;html=1;fontSize=11;" parent="oAeWeOyywlavheIQp_EQ-0" vertex="1">
          <mxGeometry y="396" width="280" height="18" as="geometry" />
        </mxCell>
        <mxCell id="oAeWeOyywlavheIQp_EQ-20" value="+&amp;nbsp;monthlyProcess(&lt;span style=&quot;background-color: initial;&quot;&gt;): void&lt;/span&gt;" style="text;strokeColor=none;fillColor=none;align=left;verticalAlign=middle;spacingLeft=4;spacingRight=4;overflow=hidden;rotatable=0;points=[[0,0.5],[1,0.5]];portConstraint=eastwest;whiteSpace=wrap;html=1;fontSize=11;" parent="oAeWeOyywlavheIQp_EQ-0" vertex="1">
          <mxGeometry y="414" width="280" height="18" as="geometry" />
        </mxCell>
        <mxCell id="oAeWeOyywlavheIQp_EQ-43" value="&lt;i&gt;SavingsAccount&lt;/i&gt;" style="swimlane;fontStyle=1;align=center;verticalAlign=top;childLayout=stackLayout;horizontal=1;startSize=30;horizontalStack=0;resizeParent=1;resizeParentMax=0;resizeLast=0;collapsible=0;marginBottom=0;whiteSpace=wrap;html=1;" parent="WIyWlLk6GJQsqaUBKTNV-1" vertex="1">
          <mxGeometry x="40" y="40" width="280" height="298" as="geometry" />
        </mxCell>
        <mxCell id="oAeWeOyywlavheIQp_EQ-44" value="- active: boolean" style="text;strokeColor=none;fillColor=none;align=left;verticalAlign=middle;spacingLeft=4;spacingRight=4;overflow=hidden;rotatable=0;points=[[0,0.5],[1,0.5]];portConstraint=eastwest;whiteSpace=wrap;html=1;fontSize=11;" parent="oAeWeOyywlavheIQp_EQ-43" vertex="1">
          <mxGeometry y="30" width="280" height="20" as="geometry" />
        </mxCell>
        <mxCell id="oAeWeOyywlavheIQp_EQ-49" value="" style="line;strokeWidth=1;fillColor=none;align=left;verticalAlign=middle;spacingTop=-1;spacingLeft=3;spacingRight=3;rotatable=0;labelPosition=right;points=[];portConstraint=eastwest;strokeColor=inherit;" parent="oAeWeOyywlavheIQp_EQ-43" vertex="1">
          <mxGeometry y="50" width="280" height="8" as="geometry" />
        </mxCell>
        <mxCell id="oAeWeOyywlavheIQp_EQ-50" value="+&amp;nbsp;SavingsAccount(balance: double&lt;span style=&quot;background-color: initial;&quot;&gt;)&lt;/span&gt;" style="text;strokeColor=none;fillColor=none;align=left;verticalAlign=middle;spacingLeft=4;spacingRight=4;overflow=hidden;rotatable=0;points=[[0,0.5],[1,0.5]];portConstraint=eastwest;whiteSpace=wrap;html=1;fontSize=11;" parent="oAeWeOyywlavheIQp_EQ-43" vertex="1">
          <mxGeometry y="58" width="280" height="18" as="geometry" />
        </mxCell>
        <mxCell id="oAeWeOyywlavheIQp_EQ-51" value="+ SavingsAccount(balance: double,&amp;nbsp;annualInterestRate:&amp;nbsp;double&lt;span style=&quot;background-color: initial;&quot;&gt;)&lt;/span&gt;" style="text;strokeColor=none;fillColor=none;align=left;verticalAlign=middle;spacingLeft=4;spacingRight=4;overflow=hidden;rotatable=0;points=[[0,0.5],[1,0.5]];portConstraint=eastwest;whiteSpace=wrap;html=1;fontSize=11;" parent="oAeWeOyywlavheIQp_EQ-43" vertex="1">
          <mxGeometry y="76" width="280" height="34" as="geometry" />
        </mxCell>
        <mxCell id="oAeWeOyywlavheIQp_EQ-52" value="+ SavingsAccount(balance: double,&amp;nbsp;annualInterestRate:&amp;nbsp;double,&amp;nbsp;monthlyServiceCharges&lt;span style=&quot;background-color: initial;&quot;&gt;: double)&lt;/span&gt;" style="text;strokeColor=none;fillColor=none;align=left;verticalAlign=middle;spacingLeft=4;spacingRight=4;overflow=hidden;rotatable=0;points=[[0,0.5],[1,0.5]];portConstraint=eastwest;whiteSpace=wrap;html=1;fontSize=11;" parent="oAeWeOyywlavheIQp_EQ-43" vertex="1">
          <mxGeometry y="110" width="280" height="44" as="geometry" />
        </mxCell>
        <mxCell id="oAeWeOyywlavheIQp_EQ-53" value="+&amp;nbsp;isActive(&lt;span style=&quot;background-color: initial;&quot;&gt;): boolean&lt;/span&gt;" style="text;strokeColor=none;fillColor=none;align=left;verticalAlign=middle;spacingLeft=4;spacingRight=4;overflow=hidden;rotatable=0;points=[[0,0.5],[1,0.5]];portConstraint=eastwest;whiteSpace=wrap;html=1;fontSize=11;" parent="oAeWeOyywlavheIQp_EQ-43" vertex="1">
          <mxGeometry y="154" width="280" height="18" as="geometry" />
        </mxCell>
        <mxCell id="oAeWeOyywlavheIQp_EQ-54" value="+&amp;nbsp;deposit(&lt;span style=&quot;background-color: initial;&quot;&gt;): void&lt;/span&gt;" style="text;strokeColor=none;fillColor=none;align=left;verticalAlign=middle;spacingLeft=4;spacingRight=4;overflow=hidden;rotatable=0;points=[[0,0.5],[1,0.5]];portConstraint=eastwest;whiteSpace=wrap;html=1;fontSize=11;" parent="oAeWeOyywlavheIQp_EQ-43" vertex="1">
          <mxGeometry y="172" width="280" height="18" as="geometry" />
        </mxCell>
        <mxCell id="oAeWeOyywlavheIQp_EQ-55" value="+&amp;nbsp;withdraw(&lt;span style=&quot;background-color: initial;&quot;&gt;): void&lt;/span&gt;" style="text;strokeColor=none;fillColor=none;align=left;verticalAlign=middle;spacingLeft=4;spacingRight=4;overflow=hidden;rotatable=0;points=[[0,0.5],[1,0.5]];portConstraint=eastwest;whiteSpace=wrap;html=1;fontSize=11;" parent="oAeWeOyywlavheIQp_EQ-43" vertex="1">
          <mxGeometry y="190" width="280" height="18" as="geometry" />
        </mxCell>
        <mxCell id="oAeWeOyywlavheIQp_EQ-56" value="+&amp;nbsp;monthlyProcess(&lt;span style=&quot;background-color: initial;&quot;&gt;): void&lt;/span&gt;" style="text;strokeColor=none;fillColor=none;align=left;verticalAlign=middle;spacingLeft=4;spacingRight=4;overflow=hidden;rotatable=0;points=[[0,0.5],[1,0.5]];portConstraint=eastwest;whiteSpace=wrap;html=1;fontSize=11;" parent="oAeWeOyywlavheIQp_EQ-43" vertex="1">
          <mxGeometry y="208" width="280" height="18" as="geometry" />
        </mxCell>
        <mxCell id="oAeWeOyywlavheIQp_EQ-57" value="+&amp;nbsp;toString(&lt;span style=&quot;background-color: initial;&quot;&gt;): String&lt;/span&gt;" style="text;strokeColor=none;fillColor=none;align=left;verticalAlign=middle;spacingLeft=4;spacingRight=4;overflow=hidden;rotatable=0;points=[[0,0.5],[1,0.5]];portConstraint=eastwest;whiteSpace=wrap;html=1;fontSize=11;" parent="oAeWeOyywlavheIQp_EQ-43" vertex="1">
          <mxGeometry y="226" width="280" height="18" as="geometry" />
        </mxCell>
        <mxCell id="oAeWeOyywlavheIQp_EQ-58" value="+ equals(other: Object&lt;span style=&quot;background-color: initial;&quot;&gt;): boolean&lt;/span&gt;" style="text;strokeColor=none;fillColor=none;align=left;verticalAlign=middle;spacingLeft=4;spacingRight=4;overflow=hidden;rotatable=0;points=[[0,0.5],[1,0.5]];portConstraint=eastwest;whiteSpace=wrap;html=1;fontSize=11;" parent="oAeWeOyywlavheIQp_EQ-43" vertex="1">
          <mxGeometry y="244" width="280" height="18" as="geometry" />
        </mxCell>
        <mxCell id="oAeWeOyywlavheIQp_EQ-59" value="+ hashCode(&lt;span style=&quot;background-color: initial;&quot;&gt;): int&lt;/span&gt;" style="text;strokeColor=none;fillColor=none;align=left;verticalAlign=middle;spacingLeft=4;spacingRight=4;overflow=hidden;rotatable=0;points=[[0,0.5],[1,0.5]];portConstraint=eastwest;whiteSpace=wrap;html=1;fontSize=11;" parent="oAeWeOyywlavheIQp_EQ-43" vertex="1">
          <mxGeometry y="262" width="280" height="18" as="geometry" />
        </mxCell>
        <mxCell id="oAeWeOyywlavheIQp_EQ-60" value="+&amp;nbsp;compareTo(other: SavingsAccount&lt;span style=&quot;background-color: initial;&quot;&gt;): int&lt;/span&gt;" style="text;strokeColor=none;fillColor=none;align=left;verticalAlign=middle;spacingLeft=4;spacingRight=4;overflow=hidden;rotatable=0;points=[[0,0.5],[1,0.5]];portConstraint=eastwest;whiteSpace=wrap;html=1;fontSize=11;" parent="oAeWeOyywlavheIQp_EQ-43" vertex="1">
          <mxGeometry y="280" width="280" height="18" as="geometry" />
        </mxCell>
        <mxCell id="oAeWeOyywlavheIQp_EQ-64" value="" style="endArrow=block;endSize=10;endFill=0;shadow=0;strokeWidth=1;rounded=0;edgeStyle=elbowEdgeStyle;elbow=vertical;entryX=-0.001;entryY=0.046;entryDx=0;entryDy=0;entryPerimeter=0;exitX=0.999;exitY=0.068;exitDx=0;exitDy=0;exitPerimeter=0;" parent="WIyWlLk6GJQsqaUBKTNV-1" source="oAeWeOyywlavheIQp_EQ-43" target="oAeWeOyywlavheIQp_EQ-0" edge="1">
          <mxGeometry width="160" relative="1" as="geometry">
            <mxPoint x="370" y="40" as="sourcePoint" />
            <mxPoint x="260" y="-62" as="targetPoint" />
          </mxGeometry>
        </mxCell>
      </root>
    </mxGraphModel>
  </diagram>
</mxfile>
